<svg width="88" height="261" viewBox="0 0 88 261" fill="none" xmlns="http://www.w3.org/2000/svg">
<rect x="1.5" y="89.5" width="85" height="82" rx="9.5" fill="white" stroke="black" stroke-width="3"/>
<path d="M77 131.189C77 113.964 62.673 100 45 100C27.327 100 13 113.964 13 131.189C13 146.757 24.702 159.66 40 162V140.205H31.875V131.189H40V124.318C40 116.501 44.7775 112.183 52.0868 112.183C55.588 112.183 59.25 112.793 59.25 112.793V120.468H55.215C51.2395 120.468 50 122.872 50 125.339V131.189H58.875L57.4562 140.205H50V162C65.298 159.66 77 146.757 77 131.189Z" fill="#1877F2"/>
<rect x="1.5" y="177.5" width="85" height="82" rx="9.5" fill="white" stroke="black" stroke-width="3"/>
<path d="M72 200.564C69.9405 201.523 67.7559 202.153 65.519 202.432C67.849 200.964 69.638 198.638 70.4804 195.868C68.2655 197.25 65.8422 198.224 63.3152 198.747C61.2567 196.441 58.3243 195 55.0787 195C48.8469 195 43.7945 200.313 43.7945 206.865C43.7945 207.795 43.8944 208.7 44.0866 209.569C34.7087 209.074 26.3943 204.35 20.8287 197.172C19.8576 198.924 19.3012 200.963 19.3012 203.137C19.3012 207.253 21.2934 210.885 24.321 213.013C22.5291 212.954 20.7766 212.445 19.2099 211.529C19.2092 211.578 19.2092 211.628 19.2092 211.678C19.2092 217.427 23.0988 222.222 28.2606 223.312C26.599 223.788 24.856 223.857 23.1649 223.516C24.6007 228.23 28.7681 231.66 33.7056 231.756C29.8438 234.938 24.9782 236.835 19.6918 236.835C18.7808 236.835 17.8828 236.779 17 236.669C21.9936 240.036 27.9248 242 34.2971 242C55.0525 242 66.402 223.92 66.402 208.241C66.402 207.726 66.3913 207.215 66.3694 206.706C68.5785 205.027 70.4852 202.947 72 200.564Z" fill="#55ACEE"/>
<rect x="1.5" y="1.5" width="85" height="82" rx="9.5" fill="white" stroke="black" stroke-width="3"/>
<g clip-path="url(#clip0_4269_79)">
<path d="M10.4938 41.8953C10.4922 47.66 12.0409 53.2888 14.9858 58.2501L10.2122 75.2015L28.049 70.6529C32.9825 73.265 38.51 74.6337 44.1272 74.634H44.1419C62.6851 74.634 77.7797 59.9588 77.7876 41.9211C77.7911 33.1805 74.2944 24.9615 67.9414 18.7779C61.5894 12.5949 53.1416 9.18795 44.1406 9.18396C25.5952 9.18396 10.5017 23.8584 10.4941 41.8953" fill="url(#paint0_linear_4269_79)"/>
<path d="M9.29258 41.8846C9.29066 47.8568 10.8949 53.6869 13.9448 58.8259L9 76.3849L27.4764 71.6733C32.5673 74.3728 38.2991 75.7961 44.1315 75.7982H44.1466C63.355 75.7982 78.9918 60.5952 79 41.9118C79.0033 32.8571 75.3808 24.3426 68.8008 17.9375C62.22 11.5332 53.47 8.00372 44.1466 8C24.9348 8 9.30023 23.201 9.29258 41.8846ZM20.2957 57.9408L19.6058 56.8758C16.7057 52.391 15.175 47.2084 15.1772 41.8868C15.1835 26.3574 28.1784 13.723 44.1575 13.723C51.8958 13.7262 59.1681 16.66 64.638 21.983C70.1075 27.3065 73.1173 34.3831 73.1154 41.9096C73.1082 57.439 60.1131 70.075 44.1466 70.075H44.1351C38.9362 70.0724 33.8374 68.7145 29.3908 66.1485L28.3326 65.5381L17.3683 68.3339L20.2957 57.9406V57.9408Z" fill="url(#paint1_linear_4269_79)"/>
<path d="M35.4354 27.7187C34.783 26.3084 34.0964 26.28 33.476 26.2552C32.9679 26.234 32.3871 26.2356 31.8069 26.2356C31.2261 26.2356 30.2825 26.448 29.4849 27.2951C28.6864 28.1429 26.4366 30.1916 26.4366 34.3586C26.4366 38.5258 29.5573 42.5529 29.9924 43.1186C30.428 43.6832 36.017 52.508 44.8687 55.903C52.2253 58.7243 53.7224 58.1632 55.319 58.0217C56.9158 57.8807 60.4716 55.9734 61.1971 53.9957C61.923 52.0182 61.923 50.3231 61.7054 49.9689C61.4877 49.616 60.9069 49.404 60.036 48.9806C59.1649 48.557 54.8834 46.5079 54.0852 46.2253C53.2868 45.9428 52.7063 45.8019 52.1255 46.65C51.5447 47.4967 49.877 49.404 49.3687 49.9689C48.8609 50.535 48.3526 50.6055 47.482 50.1819C46.6105 49.7569 43.8059 48.8636 40.4784 45.9785C37.8895 43.7334 36.1417 40.961 35.6337 40.113C35.1256 39.2662 35.5792 38.8072 36.0159 38.3852C36.4072 38.0057 36.8871 37.3961 37.323 36.9018C37.7572 36.4071 37.9021 36.0542 38.1925 35.4894C38.4831 34.924 38.3377 34.4293 38.1203 34.0057C37.9021 33.5821 36.2098 29.3933 35.4354 27.7187Z" fill="white"/>
</g>
<defs>
<linearGradient id="paint0_linear_4269_79" x1="43.9999" y1="75.2015" x2="43.9999" y2="9.18396" gradientUnits="userSpaceOnUse">
<stop stop-color="#1FAF38"/>
<stop offset="1" stop-color="#60D669"/>
</linearGradient>
<linearGradient id="paint1_linear_4269_79" x1="44" y1="76.3849" x2="44" y2="8" gradientUnits="userSpaceOnUse">
<stop stop-color="#F9F9F9"/>
<stop offset="1" stop-color="white"/>
</linearGradient>
<clipPath id="clip0_4269_79">
<rect width="70" height="68.6118" fill="white" transform="translate(9 8)"/>
</clipPath>
</defs>
</svg>
